<svg width="469" height="325" viewBox="0 0 469 325" fill="none" xmlns="http://www.w3.org/2000/svg">
<path fill-rule="evenodd" clip-rule="evenodd" d="M451.383 0V6.66587H458.337V16.9679H463.437V30.3H469V291.488H464.364V304.82H459.265V315.122H452.311V324.212H19.3164V315.122H12.3625V304.82H7.26296V291.488H0.772705V30.3H8.19014V16.9679H13.2897V6.66587H20.2435V0H451.383Z" fill="#5C5959"/>
<path fill-rule="evenodd" clip-rule="evenodd" d="M446.568 2.96899V9.50073H453.381V19.5953H458.378V32.6587H463.829V288.584H459.287V301.648H454.29V311.742H447.476V320.649H23.205V311.742H16.3913V301.648H11.3945V288.584H5.03497V32.6587H12.303V19.5953H17.2998V9.50073H24.1136V2.96899H446.568Z" fill="#E9E9E9"/>
</svg>
