<svg width="469" height="325" viewBox="0 0 469 325" fill="none" xmlns="http://www.w3.org/2000/svg">
<path fill-rule="evenodd" clip-rule="evenodd" d="M450.611 0V6.66587H457.565V16.9679H462.664V30.3H468.227V291.488H463.592V304.82H458.492V315.122H451.538V324.212H18.5437V315.122H11.5898V304.82H6.49026V291.488H0V30.3H7.41744V16.9679H12.517V6.66587H19.4708V0H450.611Z" fill="#5C5959"/>
<path fill-rule="evenodd" clip-rule="evenodd" d="M445.795 2.96899V9.50073H452.608V19.5953H457.605V32.6587H463.056V288.584H458.514V301.648H453.517V311.742H446.703V320.649H22.4323V311.742H15.6185V301.648H10.6217V288.584H4.26221V32.6587H11.5303V19.5953H16.5271V9.50073H23.3408V2.96899H445.795Z" fill="#E9E9E9"/>
</svg>
