<svg width="1129" height="682" viewBox="0 0 1129 682" fill="none" xmlns="http://www.w3.org/2000/svg">
<path fill-rule="evenodd" clip-rule="evenodd" d="M1086.52 0V14.0221H1103.29V35.6931H1115.59V63.738H1129V613.162H1117.82V641.207H1105.53V662.878H1088.76V682H44.7129V662.878H27.9456V641.207H15.6495V613.162H0V63.738H17.8851V35.6931H30.1812V14.0221H46.9485V0H1086.52Z" fill="#5C5959"/>
<path fill-rule="evenodd" clip-rule="evenodd" d="M1074.91 6.24545V19.9854H1091.34V41.2198H1103.39V68.6997H1116.53V607.055H1105.58V634.535H1093.53V655.769H1077.1V674.506H54.0894V655.769H37.6599V634.535H25.6116V607.055H10.2773V68.6997H27.8022V41.2198H39.8506V19.9854H56.2801V6.24545H1074.91Z" fill="#E9E9E9"/>
</svg>
