<svg width="177" height="84" viewBox="0 0 177 84" fill="none" xmlns="http://www.w3.org/2000/svg">
<g filter="url(#filter0_d_31_214)">
<path d="M42.1523 57.7049V62.1081H50.6898V57.7049H42.1523Z" fill="#F6E92C"/>
<path d="M139.8 30.5907H39.751V34.0669H28.2786V35.6891H16.2727V38.7018H9.86956V43.3368H7.73518V44.959H4V57.9368H7.73518V60.9495H12.8043V63.4987H18.6739V65.1209H25.0771V67.2066H31.747V69.9876H45.3537V72.7685H59.5121V75.4732H121.46V72.7685H139.8V69.9876H150.205V67.2066H155.541V65.1209H158.209V62.1082H167.014V59.3272H169.682V55.851H172.083V44.959H168.348V41.9463H164.613V38.7018H158.209V37.0796H150.205V34.0669H139.8V30.5907Z" fill="#1A1E53"/>
<path d="M18.6739 43.3367V47.7399H23.4763V50.2891H29.8794V52.8383H35.2154V54.6923H52.5573V56.5462H67.2312V58.6319H72.5672V60.2542H112.053V58.6319H122.458V56.5462H130.196V54.6923H141.935V52.8383H146.737V50.2891H152.34V47.7399H157.676V43.3367H155.008V41.4827H146.737V38.2383H25.6106V40.324H21.3419V43.3367H18.6739Z" fill="#948995"/>
<path d="M21.8755 53.9972V57.2417H23.4763V59.5591H27.4783V57.2417H29.7448V53.9972H27.4783V51.9115H23.4763V53.9972H21.8755Z" fill="#F6E92C"/>
<path d="M41.8127 60.7869V64.0314H43.4135V66.3488H47.4154V64.0314H49.6819V60.7869H47.4154V58.7012H43.4135V60.7869H41.8127Z" fill="#F6E92C"/>
<path d="M61.1211 64.9799V68.2243H62.7219V70.5418H66.7239V68.2243H68.9903V64.9799H66.7239V62.8942H62.7219V64.9799H61.1211Z" fill="#F6E92C"/>
<path d="M86.8658 67.0764V70.3208H88.4666V72.6383H92.4685V70.3208H94.735V67.0764H92.4685V64.9907H88.4666V67.0764H86.8658Z" fill="#F6E92C"/>
<path d="M109.392 64.9799V68.2243H110.993V70.5418H114.995V68.2243H117.262V64.9799H114.995V62.8942H110.993V64.9799H109.392Z" fill="#F6E92C"/>
<path d="M131.115 62.1848V65.4292H132.715V67.7467H136.717V65.4292H138.984V62.1848H136.717V60.0991H132.715V62.1848H131.115Z" fill="#F6E92C"/>
<path d="M149.619 55.8953V59.1397H151.219V61.4572H155.221V59.1397H157.488V55.8953H155.221V53.8096H151.219V55.8953H149.619Z" fill="#F6E92C"/>
<path d="M10.6699 56.3145V47.7399H12.8042V54.924H16.0058V56.3145H10.6699Z" fill="#948995"/>
<path d="M164.346 53.0699V55.6192H166.747V53.0699H164.346Z" fill="#948995"/>
<path d="M164.346 47.5082V50.0574H166.747V47.5082H164.346Z" fill="#948995"/>
<path d="M47.4881 41.4825H41.085H39.751V26.419H42.1522V21.3206H44.8201V19.0032H46.6877V14.3683H49.8893V11.3556H53.6245V9.50159H57.6265V7.18413H61.0948V4.63492H64.0296V2.08571H70.9664V0H106.984V2.08571H111.787V4.63492H116.589V7.18413H122.192V11.3556H125.126V14.3683H129.929V19.6984H132.33V24.3333H135.532V28.9683H139V39.1651H135.532V41.4825H131.263V43.8H122.192V46.3492H114.988V48.2032H97.1126V51.4476H77.3695V48.8984H62.6956V47.0444H53.6245V43.8H47.4881V41.4825Z" fill="#080722"/>
<path d="M48.0217 26.8831V31.7497H52.0237V37.0799H59.2273V38.9338H69.0988V42.1783H110.986V38.9338H118.456V37.0799H126.46V34.0672H128.595V21.0894H126.46V17.6132H122.458V14.6005H119.524V10.8926H113.654V7.64813H106.184V4.63543H100.047V2.78146H76.3024V4.63543H66.9644V7.64813H65.3636V9.96559H60.5613V12.9783H57.3597V14.6005H53.8913V17.6132H50.4229V26.8831H48.0217Z" fill="#87D2EF"/>
<path d="M58.4269 19.9307V27.1148H62.1621V31.7497H68.5653V27.1148H72.0337V19.9307H68.5653V14.8323H65.0969V17.1497H62.1621V19.9307H58.4269Z" fill="white"/>
<path d="M110.986 12.0508H100.047V14.6H103.783V15.527H108.318V17.1492H112.32V19.6984H115.255V28.9683H110.986V32.2127H108.318V34.2984H103.783V35.9207H100.047V38.9334H105.917V35.9207H110.986V34.2984H116.589V31.2857H119.79V28.9683H121.658V19.6984H119.79V17.1492H115.255V14.6H110.986V12.0508Z" fill="#1AB3E9"/>
</g>
<defs>
<filter id="filter0_d_31_214" x="0" y="0" width="176.083" height="83.4732" filterUnits="userSpaceOnUse" color-interpolation-filters="sRGB">
<feFlood flood-opacity="0" result="BackgroundImageFix"/>
<feColorMatrix in="SourceAlpha" type="matrix" values="0 0 0 0 0 0 0 0 0 0 0 0 0 0 0 0 0 0 127 0" result="hardAlpha"/>
<feOffset dy="4"/>
<feGaussianBlur stdDeviation="2"/>
<feComposite in2="hardAlpha" operator="out"/>
<feColorMatrix type="matrix" values="0 0 0 0 0 0 0 0 0 0 0 0 0 0 0 0 0 0 0.25 0"/>
<feBlend mode="normal" in2="BackgroundImageFix" result="effect1_dropShadow_31_214"/>
<feBlend mode="normal" in="SourceGraphic" in2="effect1_dropShadow_31_214" result="shape"/>
</filter>
</defs>
</svg>
